{"title":"Waffle Street 2015 Movies HDRip XviD ESubs New +Sample ~ ☻rDX☻","uid":13864583,"size":740329486,"categoryP":"video","categoryS":"movies","magnet":"?xt=urn:btih:5d135e9428c57497d5077032bdceae6595539f16&amp;dn=Waffle+Street+2015+Movies+HDRip+XviD+ESubs+New+%2BSample+%7E+%E2%98%BBrDX%E2%98%BB&amp;tr=udp%3A%2F%2Ftracker.leechers-paradise.org%3A6969&amp;tr=udp%3A%2F%2Fzer0day.ch%3A1337&amp;tr=udp%3A%2F%2Fopen.demonii.com%3A1337&amp;tr=udp%3A%2F%2Ftracker.coppersurfer.tk%3A6969&amp;tr=udp%3A%2F%2Fexodus.desync.com%3A6969","seeders":0,"leechers":1,"uploader":"basicssom","files":3,"time":1458060115,"description":"----------------------------------------------------------------\r\nWaffle Street 2015 English Movies HDRip XviD ESubs AAC New Source with Sample ~ ☻rDX☻\r\n\r\nSCREEN SHOTS &amp; POSTER:\r\n  \nhttp://mobileshosting.com/2016/3/WaffleStreet/index.htm  \nhttp://mobileshosting.com/2016/3/WaffleStreet/1.html  \nhttp://mobileshosting.com/2016/3/WaffleStreet/2.html  \nhttp://mobileshosting.com/2016/3/WaffleStreet/3.html  \nhttp://mobileshosting.com/2016/3/WaffleStreet/4.html  \nhttp://mobileshosting.com/2016/3/WaffleStreet/5.html  \nhttp://mobileshosting.com/2016/3/WaffleStreet/6.html  \nhttp://mobileshosting.com/2016/3/WaffleStreet/7.html  \nhttp://mobileshosting.com/2016/3/WaffleStreet/8.html  \nhttp://mobileshosting.com/2016/3/WaffleStreet/9.html  \nhttp://mobileshosting.com/2016/3/WaffleStreet/10.html\r\n\r\nFormat                                   : Matroska\r\nFormat version                           : Version 4 / Version 2\r\nFile size                                : 695 MiB\r\nDuration                                 : 1h 30mn\r\nOverall bit rate                         : 1 075 Kbps\r\nMovie name                               : Waffle Street 2015 English Movies HDRip XviD ESubs AAC New Source ☻rDX☻\r\n\r\nVideo\r\nID                                       : 1\r\nFormat                                   : MPEG-4 Visual\r\nFormat profile                           : Advanced   \r\nFormat settings, BVOP                    : Yes\r\nFormat settings, QPel                    : No\r\nFormat settings, GMC                     : No warppoints\r\nFormat settings, Matrix                  : Default (H.263)\r\nCodec ID                                 : V_MS/VFW/FOURCC / XVID\r\nCodec ID/Hint                            : XviD\r\nDuration                                 : 1h 30mn\r\nBit rate                                 : 926 Kbps\r\nWidth                                    : 640 pixels\r\nHeight                                   : 352 pixels\r\nDisplay aspect ratio                     : 16:9\r\nFrame rate mode                          : Constant\r\nFrame rate                               : 23.976 fps\r\nColor space                              : YUV\r\nChroma subsampling                       : 4:2:0\r\nBit depth                                : 8 bits\r\nScan type                                : Progressive\r\nCompression mode                         : Lossy\r\nBits/(Pixel*Frame)                       : 0.171\r\nStream size                              : 598 MiB (86%)\r\nTitle                                    : ☻rDX☻\r\nWriting library                          : XviD 67\r\nDefault                                  : Yes\r\nForced                                   : No\r\n\r\nAudio\r\nID                                       : 2\r\nFormat                                   : MPEG Audio\r\nFormat version                           : Version 1\r\nFormat profile                           : Layer 3\r\nMode                                     : Joint stereo\r\nMode extension                           : MS Stereo\r\nCodec ID                                 : A_MPEG/L3\r\nCodec ID/Hint                            : MP3\r\nDuration                                 : 1h 30mn\r\nBit rate mode                            : Constant\r\nBit rate                                 : 128 Kbps\r\nChannel(s)                               : 2 channels\r\nSampling rate                            : 48.0 KHz\r\nCompression mode                         : Lossy\r\nStream size                              : 82.9 MiB (12%)\r\nTitle                                    : ☻rDX☻\r\nWriting library                          : LAME3.99r\r\nEncoding settings                        : -m j -V 4 -q 3 -lowpass 17 -b 128\r\nDefault                                  : Yes\r\nForced                                   : No\r\n\r\nIMDB                                      \nhttp://www.imdb.com/title/tt3881680/","torrent":{"xt":"urn:btih:5d135e9428c57497d5077032bdceae6595539f16","amp;dn":"Waffle+Street+2015+Movies+HDRip+XviD+ESubs+New+%2BSample+%7E+%E2%98%BBrDX%E2%98%BB","amp;tr":["udp%3A%2F%2Ftracker.leechers-paradise.org%3A6969","udp%3A%2F%2Fzer0day.ch%3A1337","udp%3A%2F%2Fopen.demonii.com%3A1337","udp%3A%2F%2Ftracker.coppersurfer.tk%3A6969","udp%3A%2F%2Fexodus.desync.com%3A6969"],"infoHash":"5d135e9428c57497d5077032bdceae6595539f16","infoHashBuffer":{"type":"Buffer","data":[93,19,94,148,40,197,116,151,213,7,112,50,189,206,174,101,149,83,159,22]},"announce":[],"urlList":[]}}